<svg id="图层_1" data-name="图层 1" xmlns="http://www.w3.org/2000/svg" viewBox="0 0 110 110"><defs><style>.cls-1{fill:#ff6900;}.cls-2{fill:#fff;}</style></defs><path class="cls-1" d="M112.19,31.54C101.81,21.2,86.89,20,68.66,20S35.45,21.21,25.08,31.58,13.66,56.86,13.66,75.1s1.05,33.16,11.42,43.53S50.4,130,68.66,130s33.19-1,43.57-11.41,11.43-25.29,11.43-43.53S122.59,41.9,112.19,31.54Z" transform="translate(-13.66 -20.04)"/><path class="cls-2" d="M64.61,95.43a.68.68,0,0,1-.69.67H54.54a.68.68,0,0,1-.7-.67V70.9a.69.69,0,0,1,.7-.68h9.38a.68.68,0,0,1,.69.68Zm18.36,0a.68.68,0,0,1-.69.67H73.35a.68.68,0,0,1-.69-.67V74.26c0-3.69-.22-7.49-2.13-9.4-1.64-1.64-4.7-2-7.88-2.1H46.46a.69.69,0,0,0-.69.68v32a.68.68,0,0,1-.7.67H36.14a.68.68,0,0,1-.69-.67V54.66a.68.68,0,0,1,.69-.67H61.92c6.74,0,13.78.3,17.25,3.78S83,68.3,83,75Zm18.4,0a.69.69,0,0,1-.7.67H91.74a.68.68,0,0,1-.69-.67V54.66a.68.68,0,0,1,.69-.67h8.93a.69.69,0,0,1,.7.67Z" transform="translate(-13.66 -20.04)"/></svg>
